<?xml version="1.0" encoding="utf-8"?>
<!-- Generator: Adobe Illustrator 24.1.1, SVG Export Plug-In . SVG Version: 6.00 Build 0)  -->
<svg version="1.1" id="Layer_1" xmlns="http://www.w3.org/2000/svg" xmlns:xlink="http://www.w3.org/1999/xlink" x="0px" y="0px"
	 viewBox="0 0 512 512" style="enable-background:new 0 0 512 512;" xml:space="preserve">
<path style="fill:#FFFFFF;" d="M256,0C114.5,0,0,114.5,0,256c0,141.5,114.5,256,256,256c141.5,0,256-114.5,256-256C512,114.5,397.5,0,256,0z M256,472
	c-119.4,0-216-96.6-216-216c0-119.4,96.6-216,216-216c119.4,0,216,96.6,216,216C472,375.4,375.4,472,256,472z M436,202.7v76
	c0,11-9,20-20,20s-20-9-20-20V251l-72.5,72.5c-7.8,7.8-20.5,7.8-28.3,0L202.7,231l-92.5,92.5c-7.8,7.8-20.5,7.8-28.3,0
	c-7.8-7.8-7.8-20.5,0-28.3l106.7-106.7c7.8-7.8,20.5-7.8,28.3,0l92.5,92.5l58.4-58.4H340c-11,0-20-9-20-20s9-20,20-20h76
	C427.2,182.7,436,191.9,436,202.7z"/>
</svg>
